<?xml version="1.0" encoding="utf-8"?>
<svg width="512px" height="512px" viewBox="0 0 512 512" version="1.1" xmlns:xlink="http://www.w3.org/1999/xlink" xmlns="http://www.w3.org/2000/svg">
  <defs>
    <path d="M512 0L512 0L512 512L0 512L0 0L512 0Z" id="path_1" />
    <clipPath id="clip_1">
      <use xlink:href="#path_1" clip-rule="evenodd" fill-rule="evenodd" />
    </clipPath>
  </defs>
  <g id="Frame">
    <path d="M512 0L512 0L512 512L0 512L0 0L512 0Z" id="Frame" fill="#FFFFFF" fill-opacity="0" stroke="none" />
    <g id="Group-2" clip-path="url(#clip_1)">
      <g id="Group">
        <path d="M512 164C512 73.413 438.587 0 348 0L164 0C73.413 0 0 73.413 0 164L0 348C0 438.587 73.413 512 164 512L348 512C438.587 512 512 438.587 512 348L512 164ZM256.5 53C144.11 53 53 144.11 53 256.5C53 368.89 144.11 460 256.5 460C368.89 460 460 368.89 460 256.5C460 144.11 368.89 53 256.5 53Z" id="Vector-Subtract" fill="#F3506E" fill-rule="evenodd" stroke="none" />
        <path d="M256 52C143.334 52 52 143.334 52 256C52 368.666 143.334 460 256 460C368.666 460 460 368.666 460 256C460 143.334 368.666 52 256 52ZM256 88.0885C163.265 88.0885 88.0885 163.265 88.0885 256C88.0885 348.735 163.265 423.912 256 423.912C348.735 423.912 423.912 348.735 423.912 256C423.912 163.265 348.735 88.0885 256 88.0885Z" id="Oval-3-Subtract" fill="#E98295" fill-rule="evenodd" stroke="none" />
        <path d="M87 256.5C87 162.888 162.888 87 256.5 87C350.112 87 426 162.888 426 256.5C426 350.112 350.112 426 256.5 426C162.888 426 87 350.112 87 256.5Z" id="Oval" fill="#FFFFFF" fill-rule="evenodd" stroke="none" />
      </g>
      <path d="M142.257 272.317C144.396 276.287 148.917 278.809 153.872 278.794L243.672 278.794C247.884 278.782 251.834 280.607 254.241 283.678C256.648 286.749 257.205 290.675 255.73 294.18L231.1 362.79C230.305 365.357 231.617 368.07 234.259 369.326C236.901 370.582 240.17 370.045 242.132 368.033L369.134 251.783C372.256 248.364 372.882 243.654 370.743 239.683C368.604 235.712 364.083 233.191 359.128 233.206L269.328 233.206C265.116 233.218 261.166 231.393 258.759 228.322C256.352 225.251 255.795 221.325 257.27 217.82L281.9 149.21C282.695 146.643 281.383 143.93 278.741 142.674C276.099 141.418 272.83 141.955 270.868 143.967L143.866 260.217C140.744 263.636 140.118 268.346 142.257 272.317Z" id="Rectangle-Intersect-2" fill="#F3506E" fill-rule="evenodd" stroke="none" />
    </g>
    <g id="Group-2" clip-path="url(#clip_1)">
      <g id="Group">
        <path d="M512 164C512 73.413 438.587 0 348 0L164 0C73.413 0 0 73.413 0 164L0 348C0 438.587 73.413 512 164 512L348 512C438.587 512 512 438.587 512 348L512 164ZM256.5 53C144.11 53 53 144.11 53 256.5C53 368.89 144.11 460 256.5 460C368.89 460 460 368.89 460 256.5C460 144.11 368.89 53 256.5 53Z" id="Vector-Subtract" fill="#F3506E" fill-rule="evenodd" stroke="none" />
        <path d="M256 52C143.334 52 52 143.334 52 256C52 368.666 143.334 460 256 460C368.666 460 460 368.666 460 256C460 143.334 368.666 52 256 52ZM256 88.0885C163.265 88.0885 88.0885 163.265 88.0885 256C88.0885 348.735 163.265 423.912 256 423.912C348.735 423.912 423.912 348.735 423.912 256C423.912 163.265 348.735 88.0885 256 88.0885Z" id="Oval-3-Subtract" fill="#E98295" fill-rule="evenodd" stroke="none" />
        <path d="M87 256.5C87 162.888 162.888 87 256.5 87C350.112 87 426 162.888 426 256.5C426 350.112 350.112 426 256.5 426C162.888 426 87 350.112 87 256.5Z" id="Oval" fill="#FFFFFF" fill-rule="evenodd" stroke="none" />
      </g>
      <path d="M142.257 272.317C144.396 276.287 148.917 278.809 153.872 278.794L243.672 278.794C247.884 278.782 251.834 280.607 254.241 283.678C256.648 286.749 257.205 290.675 255.73 294.18L231.1 362.79C230.305 365.357 231.617 368.07 234.259 369.326C236.901 370.582 240.17 370.045 242.132 368.033L369.134 251.783C372.256 248.364 372.882 243.654 370.743 239.683C368.604 235.712 364.083 233.191 359.128 233.206L269.328 233.206C265.116 233.218 261.166 231.393 258.759 228.322C256.352 225.251 255.795 221.325 257.27 217.82L281.9 149.21C282.695 146.643 281.383 143.93 278.741 142.674C276.099 141.418 272.83 141.955 270.868 143.967L143.866 260.217C140.744 263.636 140.118 268.346 142.257 272.317Z" id="Rectangle-Intersect-2" fill="#F3506E" fill-rule="evenodd" stroke="none" />
    </g>
  </g>
</svg>